<svg width="48" height="48" viewBox="0 0 48 48" fill="none" xmlns="http://www.w3.org/2000/svg">
<path d="M21.6 28.8H2.4V43.2C2.4 44.473 2.90571 45.6939 3.80589 46.5941C4.70606 47.4943 5.92696 48 7.2 48H40.8C42.073 48 43.2939 47.4943 44.1941 46.5941C45.0943 45.6939 45.6 44.473 45.6 43.2V28.8H26.4V33.6H21.6V28.8ZM21.6 26.4H0V12C0 9.36 2.16 7.2 4.8 7.2H14.4V4.8C14.4 3.52696 14.9057 2.30606 15.8059 1.40589C16.7061 0.505713 17.927 0 19.2 0L28.8 0C30.073 0 31.2939 0.505713 32.1941 1.40589C33.0943 2.30606 33.6 3.52696 33.6 4.8V7.2H43.2C44.473 7.2 45.6939 7.70571 46.5941 8.60589C47.4943 9.50606 48 10.727 48 12V26.4H26.4V21.6H21.6V26.4ZM28.8 7.2V4.8H19.2V7.2H28.8Z" fill="#CBD5E1"/>
</svg>
