<svg width="40" height="40" viewBox="0 0 40 40" fill="none" xmlns="http://www.w3.org/2000/svg">
<path d="M24.3371 23.42L27.1371 18.58C27.3171 18.28 27.2371 17.9 26.9771 17.68L24.0171 15.36C24.0771 14.92 24.1171 14.46 24.1171 14C24.1171 13.54 24.0771 13.08 24.0171 12.62L26.9771 10.3C27.2371 10.08 27.3171 9.7 27.1371 9.4L24.3371 4.56C24.1571 4.26 23.7971 4.14 23.4771 4.26L19.9971 5.66C19.2771 5.1 18.4971 4.64 17.6371 4.28L17.1171 0.58C17.0835 0.418244 16.9959 0.272712 16.8687 0.167311C16.7415 0.0619104 16.5823 0.00290933 16.4171 0H10.8171C10.4771 0 10.1771 0.26 10.1171 0.6L9.59708 4.3C8.75708 4.66 7.95708 5.12 7.23708 5.68L3.75708 4.28C3.43708 4.16 3.07708 4.28 2.89708 4.58L0.097077 9.42C-0.082923 9.72 -0.00292271 10.1 0.257077 10.32L3.21708 12.64C3.15708 13.08 3.11708 13.54 3.11708 14C3.11708 14.46 3.15708 14.92 3.21708 15.38L0.257077 17.7C-0.00292271 17.92 -0.082923 18.3 0.097077 18.6L2.89708 23.44C3.07708 23.74 3.43708 23.86 3.75708 23.74L7.23708 22.34C7.95708 22.9 8.73708 23.36 9.59708 23.72L10.1171 27.42C10.1771 27.74 10.4771 28 10.8171 28H16.4171C16.7571 28 17.0571 27.74 17.1171 27.4L17.6371 23.7C18.4771 23.34 19.2771 22.88 19.9971 22.32L23.4771 23.72C23.7971 23.84 24.1571 23.72 24.3371 23.42ZM13.6171 18C11.4171 18 9.61708 16.2 9.61708 14C9.61708 11.8 11.4171 10 13.6171 10C15.8171 10 17.6171 11.8 17.6171 14C17.6171 16.2 15.8171 18 13.6171 18ZM39.8371 33.34L37.9171 31.86C37.9571 31.58 37.9971 31.28 37.9971 30.98C37.9971 30.68 37.9771 30.38 37.9171 30.1L39.8171 28.62C39.9771 28.48 40.0371 28.24 39.9171 28.04L38.1171 24.94C38.0171 24.74 37.7771 24.68 37.5571 24.74L35.3371 25.64C34.8771 25.28 34.3771 24.98 33.8171 24.76L33.4771 22.4C33.4692 22.2931 33.4218 22.193 33.3442 22.119C33.2666 22.0451 33.1642 22.0027 33.0571 22H29.4771C29.2571 22 29.0571 22.16 29.0371 22.38L28.6971 24.74C28.1571 24.98 27.6371 25.26 27.1771 25.62L24.9571 24.72C24.8552 24.6817 24.743 24.6807 24.6404 24.7173C24.5379 24.754 24.4517 24.8258 24.3971 24.92L22.5971 28.02C22.4971 28.22 22.5171 28.46 22.6971 28.6L24.5971 30.08C24.516 30.6639 24.516 31.2561 24.5971 31.84L22.6971 33.32C22.5371 33.46 22.4771 33.7 22.5971 33.9L24.3971 37C24.4971 37.2 24.7371 37.26 24.9571 37.2L27.1771 36.3C27.6371 36.66 28.1371 36.96 28.6971 37.18L29.0371 39.54C29.0771 39.76 29.2571 39.92 29.4771 39.92H33.0571C33.2771 39.92 33.4771 39.76 33.4971 39.54L33.8371 37.18C34.3771 36.94 34.8971 36.66 35.3371 36.3L37.5771 37.2C37.7771 37.28 38.0171 37.2 38.1371 37L39.9371 33.9C40.0571 33.72 39.9971 33.48 39.8371 33.34ZM31.2571 33.66C30.9024 33.6599 30.5512 33.5899 30.2235 33.454C29.8959 33.3182 29.5982 33.1191 29.3475 32.8682C29.0968 32.6173 28.8979 32.3195 28.7623 31.9917C28.6267 31.664 28.5569 31.3127 28.5571 30.958C28.5572 30.6033 28.6272 30.2521 28.7631 29.9244C28.8989 29.5968 29.098 29.2991 29.3489 29.0484C29.5998 28.7977 29.8976 28.5988 30.2254 28.4632C30.5531 28.3276 30.9044 28.2579 31.2591 28.258C31.9754 28.2583 32.6623 28.5431 33.1687 29.0498C33.675 29.5565 33.9593 30.2436 33.9591 30.96C33.9588 31.6763 33.674 32.3633 33.1673 32.8696C32.6605 33.3759 31.9734 33.6603 31.2571 33.66Z" fill="#CBD5E1"/>
</svg>
