<svg width="48" height="48" viewBox="0 0 48 48" fill="none" xmlns="http://www.w3.org/2000/svg">
<path d="M10.286 28C8.78535 25.5425 7.99414 22.7175 8.00003 19.838C8.00003 11.09 15.164 4 24 4C32.836 4 40 11.09 40 19.838C40.0059 22.7175 39.2147 25.5425 37.714 28" stroke="#1E293B" stroke-width="4" stroke-linecap="round"/>
<path d="M30.0007 38L29.7407 39.294C29.4607 40.708 29.3187 41.414 29.0007 41.974C28.5107 42.8371 27.7173 43.4872 26.7747 43.798C26.1647 44 25.4407 44 24.0007 44C22.5607 44 21.8367 44 21.2267 43.8C20.2838 43.4887 19.4904 42.8379 19.0007 41.974C18.6827 41.414 18.5407 40.708 18.2607 39.294L18.0007 38M14.7667 34.196C14.5827 33.644 14.4907 33.366 14.5007 33.142C14.5121 32.9104 14.5902 32.687 14.7258 32.4989C14.8614 32.3108 15.0486 32.166 15.2647 32.082C15.4727 32 15.7647 32 16.3447 32H31.6567C32.2387 32 32.5287 32 32.7367 32.08C32.9532 32.1641 33.1406 32.3092 33.2762 32.4977C33.4118 32.6862 33.4898 32.91 33.5007 33.142C33.5107 33.366 33.4187 33.642 33.2347 34.196C32.8947 35.218 32.7247 35.73 32.4627 36.144C31.9147 37.0092 31.0557 37.6313 30.0627 37.882C29.5867 38 29.0507 38 27.9767 38H20.0247C18.9507 38 18.4127 38 17.9387 37.88C16.9461 37.6298 16.0871 37.0085 15.5387 36.144C15.2767 35.73 15.1067 35.218 14.7667 34.196Z" stroke="#1E293B" stroke-width="4"/>
<path d="M16.5 19.5L21 24V32M31.5 19.5L27 24V32M16.5 21C16.8978 21 17.2794 20.842 17.5607 20.5607C17.842 20.2794 18 19.8978 18 19.5C18 19.1022 17.842 18.7206 17.5607 18.4393C17.2794 18.158 16.8978 18 16.5 18C16.1022 18 15.7206 18.158 15.4393 18.4393C15.158 18.7206 15 19.1022 15 19.5C15 19.8978 15.158 20.2794 15.4393 20.5607C15.7206 20.842 16.1022 21 16.5 21ZM31.5 21C31.1022 21 30.7206 20.842 30.4393 20.5607C30.158 20.2794 30 19.8978 30 19.5C30 19.1022 30.158 18.7206 30.4393 18.4393C30.7206 18.158 31.1022 18 31.5 18C31.8978 18 32.2794 18.158 32.5607 18.4393C32.842 18.7206 33 19.1022 33 19.5C33 19.8978 32.842 20.2794 32.5607 20.5607C32.2794 20.842 31.8978 21 31.5 21Z" stroke="#1E293B" stroke-width="4" stroke-linecap="round" stroke-linejoin="round"/>
</svg>
