<svg width="48" height="48" viewBox="0 0 48 48" fill="none" xmlns="http://www.w3.org/2000/svg">
<path d="M21.9995 11.9999H27.9995L34.5795 5.39995C34.7654 5.21249 34.9866 5.0637 35.2303 4.96216C35.474 4.86063 35.7355 4.80835 35.9995 4.80835C36.2635 4.80835 36.5249 4.86063 36.7686 4.96216C37.0123 5.0637 37.2336 5.21249 37.4195 5.39995L42.5795 10.5799C42.952 10.9547 43.1611 11.4616 43.1611 11.9899C43.1611 12.5183 42.952 13.0252 42.5795 13.3999L37.9995 17.9999H21.9995V21.9999C21.9995 22.5304 21.7888 23.0391 21.4137 23.4142C21.0386 23.7892 20.5299 23.9999 19.9995 23.9999C19.469 23.9999 18.9603 23.7892 18.5853 23.4142C18.2102 23.0391 17.9995 22.5304 17.9995 21.9999V15.9999C17.9995 14.9391 18.4209 13.9217 19.171 13.1715C19.9212 12.4214 20.9386 11.9999 21.9995 11.9999ZM9.99948 21.9999V29.9999L5.41948 34.5799C5.04697 34.9547 4.83789 35.4616 4.83789 35.9899C4.83789 36.5183 5.04697 37.0252 5.41948 37.3999L10.5795 42.5799C10.7654 42.7674 10.9866 42.9162 11.2303 43.0177C11.474 43.1193 11.7355 43.1715 11.9995 43.1715C12.2635 43.1715 12.5249 43.1193 12.7686 43.0177C13.0123 42.9162 13.2335 42.7674 13.4195 42.5799L21.9995 33.9999H29.9995C30.5299 33.9999 31.0386 33.7892 31.4137 33.4142C31.7888 33.0391 31.9995 32.5304 31.9995 31.9999V29.9999H33.9995C34.5299 29.9999 35.0386 29.7892 35.4137 29.4142C35.7888 29.0391 35.9995 28.5304 35.9995 27.9999V25.9999H37.9995C38.5299 25.9999 39.0386 25.7892 39.4137 25.4142C39.7888 25.0391 39.9995 24.5304 39.9995 23.9999V21.9999H25.9995V23.9999C25.9995 25.0608 25.578 26.0782 24.8279 26.8284C24.0778 27.5785 23.0603 27.9999 21.9995 27.9999H17.9995C16.9386 27.9999 15.9212 27.5785 15.171 26.8284C14.4209 26.0782 13.9995 25.0608 13.9995 23.9999V17.9999L9.99948 21.9999Z" fill="#1E293B"/>
</svg>
