<svg width="52" height="52" viewBox="0 0 52 52" fill="none" xmlns="http://www.w3.org/2000/svg">
<path d="M2 16.3672C2.26274 11.0619 3.04842 7.75242 5.40295 5.40295C7.75242 3.04842 11.0619 2.26274 16.3672 2M50 16.3672C49.7373 11.0619 48.9516 7.75242 46.5971 5.40295C44.2476 3.04842 40.9381 2.26274 35.6328 2M35.6328 50C40.9381 49.7373 44.2476 48.9516 46.5971 46.5971C48.9516 44.2476 49.7373 40.9381 50 35.6328M16.3672 50C11.0619 49.7373 7.75242 48.9516 5.40295 46.5971C3.04842 44.2476 2.26274 40.9381 2 35.6328" stroke="#1E293B" stroke-width="4" stroke-linecap="round" stroke-linejoin="round"/>
<path d="M45.288 24.277C45.9019 25.045 46.2101 25.4316 46.2101 26C46.2101 26.5684 45.9019 26.9549 45.288 27.7229C42.5267 31.1789 35.4758 38.6316 25.9996 38.6316C16.5234 38.6316 9.47243 31.1789 6.71117 27.7229C6.09727 26.9549 5.78906 26.5684 5.78906 26C5.78906 25.4316 6.09727 25.045 6.71117 24.277C9.47243 20.821 16.5234 13.3684 25.9996 13.3684C35.4758 13.3684 42.5267 20.821 45.288 24.277Z" stroke="#1E293B" stroke-width="4"/>
<path d="M31.0525 26C31.0525 24.66 30.5202 23.3748 29.5726 22.4273C28.6251 21.4797 27.3399 20.9474 25.9999 20.9474C24.6599 20.9474 23.3747 21.4797 22.4271 22.4273C21.4796 23.3748 20.9473 24.66 20.9473 26C20.9473 27.3401 21.4796 28.6252 22.4271 29.5728C23.3747 30.5203 24.6599 31.0527 25.9999 31.0527C27.3399 31.0527 28.6251 30.5203 29.5726 29.5728C30.5202 28.6252 31.0525 27.3401 31.0525 26Z" stroke="#1E293B" stroke-width="4"/>
</svg>
